<svg width="25" height="19" viewBox="0 0 25 19" fill="none" xmlns="http://www.w3.org/2000/svg">
<path d="M0 2.23309V1.58333C0 1.16341 0.16462 0.76068 0.457646 0.463748C0.750671 0.166815 1.1481 0 1.5625 0L23.4375 0C23.8519 0 24.2493 0.166815 24.5424 0.463748C24.8354 0.76068 25 1.16341 25 1.58333V2.23309L12.5 10.1498L0 2.23309ZM12.9141 11.7549C12.7899 11.8334 12.6464 11.8751 12.5 11.8751C12.3536 11.8751 12.2101 11.8334 12.0859 11.7549L0 4.10024V17.4167C0 17.8366 0.16462 18.2393 0.457646 18.5363C0.750671 18.8332 1.1481 19 1.5625 19H23.4375C23.8519 19 24.2493 18.8332 24.5424 18.5363C24.8354 18.2393 25 17.8366 25 17.4167V4.10024L12.9141 11.7549Z" fill="#555555"/>
</svg>
