<svg xmlns="http://www.w3.org/2000/svg" xmlns:xlink="http://www.w3.org/1999/xlink" version="1.1" x="0px" y="0px" viewBox="0 0 100 125" enable-background="new 0 0 100 100" xml:space="preserve"><path d="M95,25.372C95,28.1,92.789,30,90.059,30H9.941C7.212,30,5,28.1,5,25.372v-1.368C5,21.275,7.212,19,9.941,19h80.118  C92.789,19,95,21.275,95,24.003V25.372z"/><path d="M95,50.684C95,53.413,92.789,56,90.059,56H9.941C7.212,56,5,53.413,5,50.684v-1.368C5,46.587,7.212,44,9.941,44h80.118  C92.789,44,95,46.587,95,49.316V50.684z"/><path d="M95,75.996C95,78.724,92.789,81,90.059,81H9.941C7.212,81,5,78.724,5,75.996v-1.367C5,71.901,7.212,70,9.941,70h80.118  C92.789,70,95,71.901,95,74.629V75.996z"/><text x="0" y="115" fill="#000000" font-size="5px" font-weight="bold" font-family="'Helvetica Neue', Helvetica, Arial-Unicode, Arial, Sans-serif">Created by Store Black</text><text x="0" y="120" fill="#000000" font-size="5px" font-weight="bold" font-family="'Helvetica Neue', Helvetica, Arial-Unicode, Arial, Sans-serif">from the Noun Project</text></svg>