<svg xmlns="http://www.w3.org/2000/svg" width="26" height="26" fill="none" viewBox="0 0 26 26"><path fill="#6E6E6E" d="M7 6C7 4.81331 7.35189 3.65328 8.01118 2.66658C8.67047 1.67989 9.60754 0.910851 10.7039 0.456725C11.8003 0.00259972 13.0067 -0.11622 14.1705 0.115291C15.3344 0.346802 16.4035 0.918247 17.2426 1.75736C18.0818 2.59648 18.6532 3.66557 18.8847 4.82946C19.1162 5.99335 18.9974 7.19975 18.5433 8.2961C18.0892 9.39246 17.3201 10.3295 16.3334 10.9888C15.3467 11.6481 14.1867 12 13 12C11.4087 12 9.88258 11.3679 8.75736 10.2426C7.63214 9.11742 7 7.5913 7 6ZM23 26H3C2.20435 26 1.44129 25.6839 0.87868 25.1213C0.316071 24.5587 0 23.7957 0 23C0 20.6131 0.948211 18.3239 2.63604 16.636C4.32387 14.9482 6.61305 14 9 14H17C19.3869 14 21.6761 14.9482 23.364 16.636C25.0518 18.3239 26 20.6131 26 23C26 23.7957 25.6839 24.5587 25.1213 25.1213C24.5587 25.6839 23.7956 26 23 26Z"/></svg>